<?xml version="1.0" standalone="no"?>
<!DOCTYPE svg PUBLIC "-//W3C//DTD SVG 20010904//EN"
 "http://www.w3.org/TR/2001/REC-SVG-20010904/DTD/svg10.dtd">
<svg version="1.0" xmlns="http://www.w3.org/2000/svg"
 width="900.000000pt" height="900.000000pt" viewBox="0 0 900.000000 900.000000"
 preserveAspectRatio="xMidYMid meet">
<metadata>
Created by potrace 1.16, written by Peter Selinger 2001-2019
</metadata>
<g transform="translate(-12.000000,904.000000) scale(0.100000,-0.100000)"
fill="#000000" stroke="none">
<path d="M120 4540 l0 -4500 4500 0 4500 0 0 4500 0 4500 -4500 0 -4500 0 0
-4500z m8550 0 l0 -4050 -4050 0 -4050 0 0 4050 0 4050 4050 0 4050 0 0 -4050z"/>
<path d="M4605 7713 c-146 -182 -332 -510 -400 -703 -94 -267 -125 -540 -90
-803 30 -233 97 -434 236 -715 154 -309 240 -431 694 -982 319 -387 456 -561
579 -733 215 -301 337 -538 381 -741 45 -201 -19 -405 -203 -653 -86 -115
-336 -363 -487 -484 -209 -167 -473 -347 -612 -418 l-43 -21 -42 21 c-109 56
-415 277 -703 509 -333 269 -585 500 -680 624 -213 280 -237 629 -65 929 50
88 90 133 690 763 250 263 479 504 508 535 l53 57 -192 266 c-106 146 -196
266 -200 266 -8 0 -181 -135 -529 -414 -590 -472 -915 -762 -1043 -931 -115
-153 -170 -302 -171 -465 -1 -294 160 -593 535 -997 414 -445 1126 -984 1786
-1354 l43 -24 72 39 c255 138 671 408 938 607 559 418 1008 882 1166 1204 203
415 103 855 -322 1417 -160 210 -342 419 -763 871 -562 606 -704 793 -880
1157 -109 227 -181 459 -212 680 -16 121 -16 373 0 468 7 40 11 76 8 79 -3 2
-26 -22 -52 -54z"/>
</g>
</svg>
